<mxfile host="app.diagrams.net" modified="2021-12-14T02:00:19.398Z" agent="5.0 (Macintosh; Intel Mac OS X 10_15_7) AppleWebKit/605.1.15 (KHTML, like Gecko) Version/15.1 Safari/605.1.15" etag="Drm7KiQ_bXbS1ijm7Up7" version="15.9.4" type="github">
  <diagram id="C5RBs43oDa-KdzZeNtuy" name="Page-1">
    <mxGraphModel dx="2102" dy="1471" grid="1" gridSize="10" guides="1" tooltips="1" connect="1" arrows="1" fold="1" page="1" pageScale="1" pageWidth="4681" pageHeight="3300" background="none" math="0" shadow="0">
      <root>
        <mxCell id="WIyWlLk6GJQsqaUBKTNV-0" />
        <mxCell id="WIyWlLk6GJQsqaUBKTNV-1" parent="WIyWlLk6GJQsqaUBKTNV-0" />
        <mxCell id="WIyWlLk6GJQsqaUBKTNV-2" value="" style="rounded=0;html=1;jettySize=auto;orthogonalLoop=1;fontSize=11;endArrow=block;endFill=0;endSize=8;strokeWidth=1;shadow=0;labelBackgroundColor=none;edgeStyle=orthogonalEdgeStyle;" parent="WIyWlLk6GJQsqaUBKTNV-1" source="WIyWlLk6GJQsqaUBKTNV-3" target="WIyWlLk6GJQsqaUBKTNV-6" edge="1">
          <mxGeometry relative="1" as="geometry" />
        </mxCell>
        <mxCell id="WIyWlLk6GJQsqaUBKTNV-3" value="Lamp doesn&#39;t work" style="rounded=0;whiteSpace=wrap;html=1;fontSize=12;glass=0;strokeWidth=1;shadow=0;" parent="WIyWlLk6GJQsqaUBKTNV-1" vertex="1">
          <mxGeometry x="210" y="3640" width="120" height="40" as="geometry" />
        </mxCell>
        <mxCell id="WIyWlLk6GJQsqaUBKTNV-4" value="Yes" style="rounded=0;html=1;jettySize=auto;orthogonalLoop=1;fontSize=11;endArrow=block;endFill=0;endSize=8;strokeWidth=1;shadow=0;labelBackgroundColor=none;edgeStyle=orthogonalEdgeStyle;" parent="WIyWlLk6GJQsqaUBKTNV-1" source="WIyWlLk6GJQsqaUBKTNV-6" target="WIyWlLk6GJQsqaUBKTNV-10" edge="1">
          <mxGeometry y="20" relative="1" as="geometry">
            <mxPoint as="offset" />
          </mxGeometry>
        </mxCell>
        <mxCell id="WIyWlLk6GJQsqaUBKTNV-5" value="No" style="edgeStyle=orthogonalEdgeStyle;rounded=0;html=1;jettySize=auto;orthogonalLoop=1;fontSize=11;endArrow=block;endFill=0;endSize=8;strokeWidth=1;shadow=0;labelBackgroundColor=none;" parent="WIyWlLk6GJQsqaUBKTNV-1" source="WIyWlLk6GJQsqaUBKTNV-6" target="WIyWlLk6GJQsqaUBKTNV-7" edge="1">
          <mxGeometry y="10" relative="1" as="geometry">
            <mxPoint as="offset" />
          </mxGeometry>
        </mxCell>
        <mxCell id="WIyWlLk6GJQsqaUBKTNV-6" value="Lamp&lt;br&gt;plugged in?" style="rhombus;whiteSpace=wrap;html=1;shadow=0;fontFamily=Helvetica;fontSize=12;align=center;strokeWidth=1;spacing=6;spacingTop=-4;rounded=0;" parent="WIyWlLk6GJQsqaUBKTNV-1" vertex="1">
          <mxGeometry x="220" y="3730" width="100" height="80" as="geometry" />
        </mxCell>
        <mxCell id="WIyWlLk6GJQsqaUBKTNV-7" value="Plug in lamp" style="rounded=0;whiteSpace=wrap;html=1;fontSize=12;glass=0;strokeWidth=1;shadow=0;" parent="WIyWlLk6GJQsqaUBKTNV-1" vertex="1">
          <mxGeometry x="380" y="3750" width="110" height="40" as="geometry" />
        </mxCell>
        <mxCell id="WIyWlLk6GJQsqaUBKTNV-8" value="No" style="rounded=0;html=1;jettySize=auto;orthogonalLoop=1;fontSize=11;endArrow=block;endFill=0;endSize=8;strokeWidth=1;shadow=0;labelBackgroundColor=none;edgeStyle=orthogonalEdgeStyle;" parent="WIyWlLk6GJQsqaUBKTNV-1" source="WIyWlLk6GJQsqaUBKTNV-10" target="WIyWlLk6GJQsqaUBKTNV-11" edge="1">
          <mxGeometry x="0.3333" y="20" relative="1" as="geometry">
            <mxPoint as="offset" />
          </mxGeometry>
        </mxCell>
        <mxCell id="WIyWlLk6GJQsqaUBKTNV-9" value="Yes" style="edgeStyle=orthogonalEdgeStyle;rounded=0;html=1;jettySize=auto;orthogonalLoop=1;fontSize=11;endArrow=block;endFill=0;endSize=8;strokeWidth=1;shadow=0;labelBackgroundColor=none;" parent="WIyWlLk6GJQsqaUBKTNV-1" source="WIyWlLk6GJQsqaUBKTNV-10" target="WIyWlLk6GJQsqaUBKTNV-12" edge="1">
          <mxGeometry y="10" relative="1" as="geometry">
            <mxPoint as="offset" />
          </mxGeometry>
        </mxCell>
        <mxCell id="WIyWlLk6GJQsqaUBKTNV-10" value="Bulb&lt;br&gt;burned out?" style="rhombus;whiteSpace=wrap;html=1;shadow=0;fontFamily=Helvetica;fontSize=12;align=center;strokeWidth=1;spacing=6;spacingTop=-4;rounded=0;" parent="WIyWlLk6GJQsqaUBKTNV-1" vertex="1">
          <mxGeometry x="220" y="3850" width="100" height="80" as="geometry" />
        </mxCell>
        <mxCell id="WIyWlLk6GJQsqaUBKTNV-11" value="Repair Lamp" style="rounded=0;whiteSpace=wrap;html=1;fontSize=12;glass=0;strokeWidth=1;shadow=0;" parent="WIyWlLk6GJQsqaUBKTNV-1" vertex="1">
          <mxGeometry x="210" y="3990" width="120" height="40" as="geometry" />
        </mxCell>
        <mxCell id="WIyWlLk6GJQsqaUBKTNV-12" value="Replace Bulb" style="rounded=0;whiteSpace=wrap;html=1;fontSize=12;glass=0;strokeWidth=1;shadow=0;" parent="WIyWlLk6GJQsqaUBKTNV-1" vertex="1">
          <mxGeometry x="380" y="3870" width="110" height="40" as="geometry" />
        </mxCell>
        <mxCell id="ij-zDNfqEZCnku6-jbej-2" value="&lt;font style=&quot;font-size: 24px&quot;&gt;新建活动&lt;/font&gt;" style="rounded=0;whiteSpace=wrap;html=1;fillColor=#FFD966;strokeColor=#d6b656;" vertex="1" parent="WIyWlLk6GJQsqaUBKTNV-1">
          <mxGeometry x="430" y="380" width="120" height="60" as="geometry" />
        </mxCell>
        <mxCell id="ij-zDNfqEZCnku6-jbej-4" value="&lt;font style=&quot;font-size: 24px&quot;&gt;发布活动&lt;/font&gt;" style="rounded=0;whiteSpace=wrap;html=1;fillColor=#FFD966;strokeColor=#d6b656;" vertex="1" parent="WIyWlLk6GJQsqaUBKTNV-1">
          <mxGeometry x="1204" y="390" width="120" height="60" as="geometry" />
        </mxCell>
        <mxCell id="ij-zDNfqEZCnku6-jbej-6" value="&lt;font style=&quot;font-size: 24px&quot;&gt;报名审核&lt;/font&gt;" style="rounded=0;whiteSpace=wrap;html=1;fillColor=#FFD966;strokeColor=#d6b656;" vertex="1" parent="WIyWlLk6GJQsqaUBKTNV-1">
          <mxGeometry x="2075" y="390" width="120" height="60" as="geometry" />
        </mxCell>
        <mxCell id="ij-zDNfqEZCnku6-jbej-7" value="&lt;font style=&quot;font-size: 24px&quot;&gt;活动举行&lt;/font&gt;" style="rounded=0;whiteSpace=wrap;html=1;fillColor=#FFD966;strokeColor=#d6b656;" vertex="1" parent="WIyWlLk6GJQsqaUBKTNV-1">
          <mxGeometry x="2780" y="390" width="120" height="60" as="geometry" />
        </mxCell>
        <mxCell id="ij-zDNfqEZCnku6-jbej-8" value="&lt;font size=&quot;4&quot;&gt;展示信息（二维码）&lt;/font&gt;" style="rounded=0;whiteSpace=wrap;html=1;fillColor=#dae8fc;strokeColor=#6c8ebf;" vertex="1" parent="WIyWlLk6GJQsqaUBKTNV-1">
          <mxGeometry x="3080" y="592" width="120" height="60" as="geometry" />
        </mxCell>
        <mxCell id="ij-zDNfqEZCnku6-jbej-14" value="Thread 1" style="swimlane;whiteSpace=wrap;" vertex="1" parent="WIyWlLk6GJQsqaUBKTNV-1">
          <mxGeometry x="120" y="4050" width="280" height="570" as="geometry" />
        </mxCell>
        <mxCell id="ij-zDNfqEZCnku6-jbej-15" value="" style="ellipse;shape=startState;fillColor=#000000;strokeColor=#ff0000;" vertex="1" parent="ij-zDNfqEZCnku6-jbej-14">
          <mxGeometry x="100" y="40" width="30" height="30" as="geometry" />
        </mxCell>
        <mxCell id="ij-zDNfqEZCnku6-jbej-16" value="" style="edgeStyle=elbowEdgeStyle;elbow=horizontal;verticalAlign=bottom;endArrow=open;endSize=8;strokeColor=#FF0000;endFill=1;rounded=0;" edge="1" parent="ij-zDNfqEZCnku6-jbej-14" source="ij-zDNfqEZCnku6-jbej-15" target="ij-zDNfqEZCnku6-jbej-17">
          <mxGeometry x="100" y="40" as="geometry">
            <mxPoint x="115" y="110" as="targetPoint" />
          </mxGeometry>
        </mxCell>
        <mxCell id="ij-zDNfqEZCnku6-jbej-17" value="idle" style="" vertex="1" parent="ij-zDNfqEZCnku6-jbej-14">
          <mxGeometry x="60" y="110" width="110" height="50" as="geometry" />
        </mxCell>
        <mxCell id="ij-zDNfqEZCnku6-jbej-18" value="user action" style="" vertex="1" parent="ij-zDNfqEZCnku6-jbej-14">
          <mxGeometry x="60" y="220" width="110" height="50" as="geometry" />
        </mxCell>
        <mxCell id="ij-zDNfqEZCnku6-jbej-19" value="" style="endArrow=open;strokeColor=#FF0000;endFill=1;rounded=0;" edge="1" parent="ij-zDNfqEZCnku6-jbej-14" source="ij-zDNfqEZCnku6-jbej-17" target="ij-zDNfqEZCnku6-jbej-18">
          <mxGeometry relative="1" as="geometry" />
        </mxCell>
        <mxCell id="ij-zDNfqEZCnku6-jbej-20" value="post command" style="" vertex="1" parent="ij-zDNfqEZCnku6-jbej-14">
          <mxGeometry x="60" y="325" width="110" height="50" as="geometry" />
        </mxCell>
        <mxCell id="ij-zDNfqEZCnku6-jbej-21" value="" style="endArrow=open;strokeColor=#FF0000;endFill=1;rounded=0;" edge="1" parent="ij-zDNfqEZCnku6-jbej-14" source="ij-zDNfqEZCnku6-jbej-18" target="ij-zDNfqEZCnku6-jbej-20">
          <mxGeometry relative="1" as="geometry" />
        </mxCell>
        <mxCell id="ij-zDNfqEZCnku6-jbej-22" value="" style="edgeStyle=elbowEdgeStyle;elbow=horizontal;strokeColor=#FF0000;endArrow=open;endFill=1;rounded=0;" edge="1" parent="ij-zDNfqEZCnku6-jbej-14" source="ij-zDNfqEZCnku6-jbej-20" target="ij-zDNfqEZCnku6-jbej-17">
          <mxGeometry width="100" height="100" relative="1" as="geometry">
            <mxPoint x="160" y="290" as="sourcePoint" />
            <mxPoint x="260" y="190" as="targetPoint" />
            <Array as="points">
              <mxPoint x="30" y="250" />
            </Array>
          </mxGeometry>
        </mxCell>
        <mxCell id="ij-zDNfqEZCnku6-jbej-23" value="Thread 2" style="swimlane;whiteSpace=wrap;" vertex="1" parent="WIyWlLk6GJQsqaUBKTNV-1">
          <mxGeometry x="400" y="4050" width="280" height="570" as="geometry" />
        </mxCell>
        <mxCell id="ij-zDNfqEZCnku6-jbej-24" value="" style="ellipse;shape=startState;fillColor=#000000;strokeColor=#ff0000;" vertex="1" parent="ij-zDNfqEZCnku6-jbej-23">
          <mxGeometry x="60" y="40" width="30" height="30" as="geometry" />
        </mxCell>
        <mxCell id="ij-zDNfqEZCnku6-jbej-25" value="" style="edgeStyle=elbowEdgeStyle;elbow=horizontal;verticalAlign=bottom;endArrow=open;endSize=8;strokeColor=#FF0000;endFill=1;rounded=0;" edge="1" parent="ij-zDNfqEZCnku6-jbej-23" source="ij-zDNfqEZCnku6-jbej-24" target="ij-zDNfqEZCnku6-jbej-26">
          <mxGeometry x="40" y="20" as="geometry">
            <mxPoint x="55" y="90" as="targetPoint" />
          </mxGeometry>
        </mxCell>
        <mxCell id="ij-zDNfqEZCnku6-jbej-26" value="idle" style="" vertex="1" parent="ij-zDNfqEZCnku6-jbej-23">
          <mxGeometry x="20" y="110" width="110" height="50" as="geometry" />
        </mxCell>
        <mxCell id="ij-zDNfqEZCnku6-jbej-27" value="check for &#xa;new commands" style="" vertex="1" parent="ij-zDNfqEZCnku6-jbej-23">
          <mxGeometry x="20" y="220" width="110" height="50" as="geometry" />
        </mxCell>
        <mxCell id="ij-zDNfqEZCnku6-jbej-28" value="" style="endArrow=open;strokeColor=#FF0000;endFill=1;rounded=0;" edge="1" parent="ij-zDNfqEZCnku6-jbej-23" source="ij-zDNfqEZCnku6-jbej-26" target="ij-zDNfqEZCnku6-jbej-27">
          <mxGeometry relative="1" as="geometry" />
        </mxCell>
        <mxCell id="ij-zDNfqEZCnku6-jbej-29" value="command queue" style="" vertex="1" parent="ij-zDNfqEZCnku6-jbej-23">
          <mxGeometry x="20" y="325" width="110" height="50" as="geometry" />
        </mxCell>
        <mxCell id="ij-zDNfqEZCnku6-jbej-30" value="" style="endArrow=open;strokeColor=#FF0000;endFill=1;rounded=0;" edge="1" parent="ij-zDNfqEZCnku6-jbej-23" source="ij-zDNfqEZCnku6-jbej-27" target="ij-zDNfqEZCnku6-jbej-29">
          <mxGeometry relative="1" as="geometry" />
        </mxCell>
        <mxCell id="ij-zDNfqEZCnku6-jbej-31" value="queue empty" style="rhombus;fillColor=#ffffc0;strokeColor=#ff0000;" vertex="1" parent="ij-zDNfqEZCnku6-jbej-23">
          <mxGeometry x="150" y="225" width="80" height="40" as="geometry" />
        </mxCell>
        <mxCell id="ij-zDNfqEZCnku6-jbej-32" value="yes" style="edgeStyle=elbowEdgeStyle;elbow=horizontal;align=left;verticalAlign=bottom;endArrow=open;endSize=8;strokeColor=#FF0000;exitX=0.5;exitY=0;endFill=1;rounded=0;entryX=0.75;entryY=0.5;entryPerimeter=0;" edge="1" parent="ij-zDNfqEZCnku6-jbej-23" source="ij-zDNfqEZCnku6-jbej-31" target="ij-zDNfqEZCnku6-jbej-35">
          <mxGeometry x="-1" relative="1" as="geometry">
            <mxPoint x="160" y="150" as="targetPoint" />
            <Array as="points">
              <mxPoint x="190" y="180" />
            </Array>
          </mxGeometry>
        </mxCell>
        <mxCell id="ij-zDNfqEZCnku6-jbej-33" value="no" style="edgeStyle=elbowEdgeStyle;elbow=horizontal;align=left;verticalAlign=top;endArrow=open;endSize=8;strokeColor=#FF0000;endFill=1;rounded=0;" edge="1" parent="ij-zDNfqEZCnku6-jbej-23" source="ij-zDNfqEZCnku6-jbej-31" target="ij-zDNfqEZCnku6-jbej-37">
          <mxGeometry x="-1" relative="1" as="geometry">
            <mxPoint x="190" y="305" as="targetPoint" />
          </mxGeometry>
        </mxCell>
        <mxCell id="ij-zDNfqEZCnku6-jbej-34" value="" style="endArrow=open;strokeColor=#FF0000;endFill=1;rounded=0;" edge="1" parent="ij-zDNfqEZCnku6-jbej-23" source="ij-zDNfqEZCnku6-jbej-27" target="ij-zDNfqEZCnku6-jbej-31">
          <mxGeometry relative="1" as="geometry" />
        </mxCell>
        <mxCell id="ij-zDNfqEZCnku6-jbej-35" value="" style="shape=line;strokeWidth=6;strokeColor=#ff0000;rotation=90;" vertex="1" parent="ij-zDNfqEZCnku6-jbej-23">
          <mxGeometry x="130" y="127.5" width="50" height="15" as="geometry" />
        </mxCell>
        <mxCell id="ij-zDNfqEZCnku6-jbej-36" value="" style="edgeStyle=elbowEdgeStyle;elbow=horizontal;verticalAlign=bottom;endArrow=open;endSize=8;strokeColor=#FF0000;endFill=1;rounded=0;" edge="1" parent="ij-zDNfqEZCnku6-jbej-23" source="ij-zDNfqEZCnku6-jbej-35" target="ij-zDNfqEZCnku6-jbej-26">
          <mxGeometry x="130" y="90" as="geometry">
            <mxPoint x="230" y="140" as="targetPoint" />
          </mxGeometry>
        </mxCell>
        <mxCell id="ij-zDNfqEZCnku6-jbej-37" value="dispatch&#xa;command&#xa;worker thread" style="" vertex="1" parent="ij-zDNfqEZCnku6-jbej-23">
          <mxGeometry x="140" y="325" width="110" height="50" as="geometry" />
        </mxCell>
        <mxCell id="ij-zDNfqEZCnku6-jbej-38" value="critical&#xa;section" style="shape=note;whiteSpace=wrap;size=17;" vertex="1" parent="ij-zDNfqEZCnku6-jbej-23">
          <mxGeometry x="105" y="490" width="100" height="50" as="geometry" />
        </mxCell>
        <mxCell id="ij-zDNfqEZCnku6-jbej-39" value="" style="endArrow=none;strokeColor=#FF0000;endFill=0;rounded=0;dashed=1;" edge="1" parent="ij-zDNfqEZCnku6-jbej-23" source="ij-zDNfqEZCnku6-jbej-29" target="ij-zDNfqEZCnku6-jbej-38">
          <mxGeometry relative="1" as="geometry" />
        </mxCell>
        <mxCell id="ij-zDNfqEZCnku6-jbej-40" value="" style="whiteSpace=wrap;strokeColor=#FF0000;fillColor=#FF0000;" vertex="1" parent="ij-zDNfqEZCnku6-jbej-23">
          <mxGeometry x="245" y="395" width="5" height="45" as="geometry" />
        </mxCell>
        <mxCell id="ij-zDNfqEZCnku6-jbej-41" value="" style="edgeStyle=elbowEdgeStyle;elbow=horizontal;entryX=0;entryY=0.5;strokeColor=#FF0000;endArrow=open;endFill=1;rounded=0;" edge="1" parent="ij-zDNfqEZCnku6-jbej-23" source="ij-zDNfqEZCnku6-jbej-37" target="ij-zDNfqEZCnku6-jbej-40">
          <mxGeometry width="100" height="100" relative="1" as="geometry">
            <mxPoint x="60" y="480" as="sourcePoint" />
            <mxPoint x="160" y="380" as="targetPoint" />
            <Array as="points">
              <mxPoint x="195" y="400" />
            </Array>
          </mxGeometry>
        </mxCell>
        <mxCell id="ij-zDNfqEZCnku6-jbej-42" value="Thread 3" style="swimlane;whiteSpace=wrap;" vertex="1" parent="WIyWlLk6GJQsqaUBKTNV-1">
          <mxGeometry x="680" y="4050" width="280" height="570" as="geometry" />
        </mxCell>
        <mxCell id="ij-zDNfqEZCnku6-jbej-43" value="process&#xa;command" style="" vertex="1" parent="ij-zDNfqEZCnku6-jbej-42">
          <mxGeometry x="90" y="405" width="110" height="50" as="geometry" />
        </mxCell>
        <mxCell id="ij-zDNfqEZCnku6-jbej-44" value="" style="edgeStyle=elbowEdgeStyle;elbow=horizontal;strokeColor=#FF0000;endArrow=open;endFill=1;rounded=0;entryX=0.25;entryY=0.5;entryPerimeter=0;" edge="1" parent="ij-zDNfqEZCnku6-jbej-42" target="ij-zDNfqEZCnku6-jbej-35">
          <mxGeometry width="100" height="100" relative="1" as="geometry">
            <mxPoint x="-30" y="410" as="sourcePoint" />
            <mxPoint x="-120" y="120" as="targetPoint" />
            <Array as="points">
              <mxPoint x="-10" y="135" />
            </Array>
          </mxGeometry>
        </mxCell>
        <mxCell id="ij-zDNfqEZCnku6-jbej-45" value="" style="edgeStyle=none;strokeColor=#FF0000;endArrow=open;endFill=1;rounded=0;" edge="1" parent="ij-zDNfqEZCnku6-jbej-42" target="ij-zDNfqEZCnku6-jbej-43">
          <mxGeometry width="100" height="100" relative="1" as="geometry">
            <mxPoint x="-30" y="429.5" as="sourcePoint" />
            <mxPoint x="90" y="429.5" as="targetPoint" />
          </mxGeometry>
        </mxCell>
        <mxCell id="ij-zDNfqEZCnku6-jbej-46" value="" style="ellipse;shape=endState;fillColor=#000000;strokeColor=#ff0000;" vertex="1" parent="ij-zDNfqEZCnku6-jbej-42">
          <mxGeometry x="130" y="500" width="30" height="30" as="geometry" />
        </mxCell>
        <mxCell id="ij-zDNfqEZCnku6-jbej-47" value="" style="endArrow=open;strokeColor=#FF0000;endFill=1;rounded=0;" edge="1" parent="ij-zDNfqEZCnku6-jbej-42" source="ij-zDNfqEZCnku6-jbej-43" target="ij-zDNfqEZCnku6-jbej-46">
          <mxGeometry relative="1" as="geometry" />
        </mxCell>
        <mxCell id="ij-zDNfqEZCnku6-jbej-48" value="" style="endArrow=open;strokeColor=#FF0000;endFill=1;rounded=0;" edge="1" parent="WIyWlLk6GJQsqaUBKTNV-1" source="ij-zDNfqEZCnku6-jbej-20" target="ij-zDNfqEZCnku6-jbej-29">
          <mxGeometry relative="1" as="geometry" />
        </mxCell>
        <mxCell id="ij-zDNfqEZCnku6-jbej-52" value="活动基本信息" style="rounded=1;whiteSpace=wrap;html=1;fontSize=18;fillColor=#fff2cc;strokeColor=#d6b656;" vertex="1" parent="WIyWlLk6GJQsqaUBKTNV-1">
          <mxGeometry x="218" y="340" width="130" height="30" as="geometry" />
        </mxCell>
        <mxCell id="ij-zDNfqEZCnku6-jbej-53" value="活动所需成员信息" style="rounded=1;whiteSpace=wrap;html=1;fontSize=18;fillColor=#fff2cc;strokeColor=#d6b656;" vertex="1" parent="WIyWlLk6GJQsqaUBKTNV-1">
          <mxGeometry x="180" y="440" width="180" height="30" as="geometry" />
        </mxCell>
        <mxCell id="ij-zDNfqEZCnku6-jbej-56" value="&lt;ol style=&quot;font-size: 12px&quot;&gt;&lt;li&gt;&lt;span style=&quot;font-size: 12px;&quot;&gt;活动编号&lt;/span&gt;&lt;br&gt;&lt;/li&gt;&lt;li&gt;&lt;span style=&quot;font-size: 12px;&quot;&gt;活动名称&lt;/span&gt;&lt;br&gt;&lt;/li&gt;&lt;li&gt;&lt;span style=&quot;font-size: 12px;&quot;&gt;活动详情&lt;/span&gt;&lt;br&gt;&lt;/li&gt;&lt;li&gt;&lt;span style=&quot;font-size: 12px;&quot;&gt;活动图片&lt;/span&gt;&lt;br&gt;&lt;/li&gt;&lt;li&gt;&lt;span style=&quot;font-size: 12px;&quot;&gt;活动类型&lt;/span&gt;&lt;br&gt;&lt;/li&gt;&lt;li&gt;&lt;span style=&quot;font-size: 12px;&quot;&gt;活动地点&lt;/span&gt;&lt;br&gt;&lt;/li&gt;&lt;li&gt;&lt;span style=&quot;font-size: 12px;&quot;&gt;报名时间&lt;/span&gt;&lt;br&gt;&lt;/li&gt;&lt;li&gt;&lt;span style=&quot;font-size: 12px;&quot;&gt;活动时间&lt;/span&gt;&lt;br&gt;&lt;/li&gt;&lt;li&gt;&lt;span style=&quot;font-size: 12px;&quot;&gt;活动时间备注&lt;/span&gt;&lt;br&gt;&lt;/li&gt;&lt;li&gt;&lt;span style=&quot;font-size: 12px;&quot;&gt;活动人数上限&lt;/span&gt;&lt;br&gt;&lt;/li&gt;&lt;li&gt;&lt;span style=&quot;font-size: 12px;&quot;&gt;活动费用&lt;/span&gt;&lt;br&gt;&lt;/li&gt;&lt;li&gt;&lt;span style=&quot;font-size: 12px;&quot;&gt;活动结束时间&lt;/span&gt;&lt;br&gt;&lt;/li&gt;&lt;/ol&gt;" style="strokeWidth=2;html=1;shape=mxgraph.flowchart.multi-document;whiteSpace=wrap;fontSize=18;fillColor=#fff2cc;strokeColor=#d6b656;align=left;" vertex="1" parent="WIyWlLk6GJQsqaUBKTNV-1">
          <mxGeometry x="30" y="120" width="170" height="260" as="geometry" />
        </mxCell>
        <mxCell id="ij-zDNfqEZCnku6-jbej-57" value="" style="strokeWidth=2;html=1;shape=mxgraph.flowchart.annotation_2;align=left;labelPosition=right;pointerEvents=1;fontSize=18;fillColor=#FFD966;direction=west;" vertex="1" parent="WIyWlLk6GJQsqaUBKTNV-1">
          <mxGeometry x="370" y="360" width="50" height="100" as="geometry" />
        </mxCell>
        <mxCell id="ij-zDNfqEZCnku6-jbej-59" value="" style="strokeWidth=3;html=1;shape=mxgraph.flowchart.annotation_2;align=left;labelPosition=right;pointerEvents=1;fontSize=12;fillColor=#FFD966;direction=south;sketch=0;" vertex="1" parent="WIyWlLk6GJQsqaUBKTNV-1">
          <mxGeometry x="230" y="470" width="130" height="50" as="geometry" />
        </mxCell>
        <mxCell id="ij-zDNfqEZCnku6-jbej-60" value="&lt;font style=&quot;font-size: 18px&quot;&gt;默认&lt;/font&gt;" style="rounded=1;whiteSpace=wrap;html=1;fontSize=12;fillColor=#fff2cc;strokeColor=#d6b656;" vertex="1" parent="WIyWlLk6GJQsqaUBKTNV-1">
          <mxGeometry x="180" y="520" width="100" height="30" as="geometry" />
        </mxCell>
        <mxCell id="ij-zDNfqEZCnku6-jbej-61" value="默认" style="swimlane;fontStyle=0;childLayout=stackLayout;horizontal=1;startSize=26;fillColor=none;horizontalStack=0;resizeParent=1;resizeParentMax=0;resizeLast=0;collapsible=1;marginBottom=0;fontSize=18;" vertex="1" parent="WIyWlLk6GJQsqaUBKTNV-1">
          <mxGeometry x="100" y="560" width="140" height="104" as="geometry">
            <mxRectangle x="100" y="560" width="60" height="30" as="alternateBounds" />
          </mxGeometry>
        </mxCell>
        <mxCell id="ij-zDNfqEZCnku6-jbej-62" value="姓名&#xa;&#xa;" style="text;strokeColor=none;fillColor=none;align=left;verticalAlign=top;spacingLeft=4;spacingRight=4;overflow=hidden;rotatable=0;points=[[0,0.5],[1,0.5]];portConstraint=eastwest;fontSize=18;" vertex="1" parent="ij-zDNfqEZCnku6-jbej-61">
          <mxGeometry y="26" width="140" height="26" as="geometry" />
        </mxCell>
        <mxCell id="ij-zDNfqEZCnku6-jbej-63" value="英文名" style="text;strokeColor=none;fillColor=none;align=left;verticalAlign=top;spacingLeft=4;spacingRight=4;overflow=hidden;rotatable=0;points=[[0,0.5],[1,0.5]];portConstraint=eastwest;fontSize=18;" vertex="1" parent="ij-zDNfqEZCnku6-jbej-61">
          <mxGeometry y="52" width="140" height="26" as="geometry" />
        </mxCell>
        <mxCell id="ij-zDNfqEZCnku6-jbej-64" value="手提电话" style="text;strokeColor=none;fillColor=none;align=left;verticalAlign=top;spacingLeft=4;spacingRight=4;overflow=hidden;rotatable=0;points=[[0,0.5],[1,0.5]];portConstraint=eastwest;fontSize=18;" vertex="1" parent="ij-zDNfqEZCnku6-jbej-61">
          <mxGeometry y="78" width="140" height="26" as="geometry" />
        </mxCell>
        <mxCell id="ij-zDNfqEZCnku6-jbej-65" value="&lt;font size=&quot;4&quot;&gt;管理员设置&lt;/font&gt;" style="rounded=1;whiteSpace=wrap;html=1;fontSize=12;fillColor=#fff2cc;strokeColor=#d6b656;" vertex="1" parent="WIyWlLk6GJQsqaUBKTNV-1">
          <mxGeometry x="290" y="520" width="140" height="30" as="geometry" />
        </mxCell>
        <mxCell id="ij-zDNfqEZCnku6-jbej-67" value="管理员设置" style="swimlane;fontStyle=0;childLayout=stackLayout;horizontal=1;startSize=26;fillColor=none;horizontalStack=0;resizeParent=1;resizeParentMax=0;resizeLast=0;collapsible=1;marginBottom=0;fontSize=18;" vertex="1" parent="WIyWlLk6GJQsqaUBKTNV-1">
          <mxGeometry x="290" y="560" width="140" height="182" as="geometry">
            <mxRectangle x="100" y="560" width="60" height="30" as="alternateBounds" />
          </mxGeometry>
        </mxCell>
        <mxCell id="ij-zDNfqEZCnku6-jbej-68" value="出生日期" style="text;strokeColor=none;fillColor=none;align=left;verticalAlign=top;spacingLeft=4;spacingRight=4;overflow=hidden;rotatable=0;points=[[0,0.5],[1,0.5]];portConstraint=eastwest;fontSize=18;" vertex="1" parent="ij-zDNfqEZCnku6-jbej-67">
          <mxGeometry y="26" width="140" height="26" as="geometry" />
        </mxCell>
        <mxCell id="ij-zDNfqEZCnku6-jbej-69" value="地址" style="text;strokeColor=none;fillColor=none;align=left;verticalAlign=top;spacingLeft=4;spacingRight=4;overflow=hidden;rotatable=0;points=[[0,0.5],[1,0.5]];portConstraint=eastwest;fontSize=18;" vertex="1" parent="ij-zDNfqEZCnku6-jbej-67">
          <mxGeometry y="52" width="140" height="26" as="geometry" />
        </mxCell>
        <mxCell id="ij-zDNfqEZCnku6-jbej-89" value="性别" style="text;strokeColor=none;fillColor=none;align=left;verticalAlign=top;spacingLeft=4;spacingRight=4;overflow=hidden;rotatable=0;points=[[0,0.5],[1,0.5]];portConstraint=eastwest;fontSize=18;" vertex="1" parent="ij-zDNfqEZCnku6-jbej-67">
          <mxGeometry y="78" width="140" height="26" as="geometry" />
        </mxCell>
        <mxCell id="ij-zDNfqEZCnku6-jbej-90" value="住宅电话" style="text;strokeColor=none;fillColor=none;align=left;verticalAlign=top;spacingLeft=4;spacingRight=4;overflow=hidden;rotatable=0;points=[[0,0.5],[1,0.5]];portConstraint=eastwest;fontSize=18;" vertex="1" parent="ij-zDNfqEZCnku6-jbej-67">
          <mxGeometry y="104" width="140" height="26" as="geometry" />
        </mxCell>
        <mxCell id="ij-zDNfqEZCnku6-jbej-95" value="身份证号码" style="text;strokeColor=none;fillColor=none;align=left;verticalAlign=top;spacingLeft=4;spacingRight=4;overflow=hidden;rotatable=0;points=[[0,0.5],[1,0.5]];portConstraint=eastwest;fontSize=18;" vertex="1" parent="ij-zDNfqEZCnku6-jbej-67">
          <mxGeometry y="130" width="140" height="26" as="geometry" />
        </mxCell>
        <mxCell id="ij-zDNfqEZCnku6-jbej-96" value="……" style="text;strokeColor=none;fillColor=none;align=left;verticalAlign=top;spacingLeft=4;spacingRight=4;overflow=hidden;rotatable=0;points=[[0,0.5],[1,0.5]];portConstraint=eastwest;fontSize=18;" vertex="1" parent="ij-zDNfqEZCnku6-jbej-67">
          <mxGeometry y="156" width="140" height="26" as="geometry" />
        </mxCell>
        <mxCell id="ij-zDNfqEZCnku6-jbej-81" value="" style="shape=partialRectangle;whiteSpace=wrap;html=1;top=0;left=0;fillColor=none;sketch=0;fontSize=18;strokeWidth=3;direction=north;" vertex="1" parent="WIyWlLk6GJQsqaUBKTNV-1">
          <mxGeometry x="360" y="495" width="150" height="25" as="geometry" />
        </mxCell>
        <mxCell id="ij-zDNfqEZCnku6-jbej-82" value="&lt;font size=&quot;4&quot;&gt;限制条件&lt;/font&gt;" style="rounded=1;whiteSpace=wrap;html=1;fontSize=12;fillColor=#fff2cc;strokeColor=#d6b656;" vertex="1" parent="WIyWlLk6GJQsqaUBKTNV-1">
          <mxGeometry x="446" y="520" width="140" height="30" as="geometry" />
        </mxCell>
        <mxCell id="ij-zDNfqEZCnku6-jbej-83" value="限制条件" style="swimlane;fontStyle=0;childLayout=stackLayout;horizontal=1;startSize=26;fillColor=none;horizontalStack=0;resizeParent=1;resizeParentMax=0;resizeLast=0;collapsible=1;marginBottom=0;fontSize=18;" vertex="1" parent="WIyWlLk6GJQsqaUBKTNV-1">
          <mxGeometry x="460" y="560" width="330" height="158" as="geometry">
            <mxRectangle x="100" y="560" width="60" height="30" as="alternateBounds" />
          </mxGeometry>
        </mxCell>
        <mxCell id="ij-zDNfqEZCnku6-jbej-84" value="年龄限制（如限制，出生日期为必填项）" style="text;strokeColor=none;fillColor=none;align=left;verticalAlign=top;spacingLeft=4;spacingRight=4;overflow=hidden;rotatable=0;points=[[0,0.5],[1,0.5]];portConstraint=eastwest;fontSize=18;" vertex="1" parent="ij-zDNfqEZCnku6-jbej-83">
          <mxGeometry y="26" width="330" height="26" as="geometry" />
        </mxCell>
        <mxCell id="ij-zDNfqEZCnku6-jbej-85" value="地址（如限制，详细大众小区为必填项）" style="text;strokeColor=none;fillColor=none;align=left;verticalAlign=top;spacingLeft=4;spacingRight=4;overflow=hidden;rotatable=0;points=[[0,0.5],[1,0.5]];portConstraint=eastwest;fontSize=18;" vertex="1" parent="ij-zDNfqEZCnku6-jbej-83">
          <mxGeometry y="52" width="330" height="28" as="geometry" />
        </mxCell>
        <mxCell id="ij-zDNfqEZCnku6-jbej-88" value="是否会员（如限制，      ）&#xa;&#xa;" style="text;strokeColor=none;fillColor=none;align=left;verticalAlign=top;spacingLeft=4;spacingRight=4;overflow=hidden;rotatable=0;points=[[0,0.5],[1,0.5]];portConstraint=eastwest;fontSize=18;" vertex="1" parent="ij-zDNfqEZCnku6-jbej-83">
          <mxGeometry y="80" width="330" height="30" as="geometry" />
        </mxCell>
        <mxCell id="ij-zDNfqEZCnku6-jbej-91" value="是否允许同一地址会员仅报名一次" style="text;strokeColor=none;fillColor=none;align=left;verticalAlign=top;spacingLeft=4;spacingRight=4;overflow=hidden;rotatable=0;points=[[0,0.5],[1,0.5]];portConstraint=eastwest;fontSize=18;" vertex="1" parent="ij-zDNfqEZCnku6-jbej-83">
          <mxGeometry y="110" width="330" height="48" as="geometry" />
        </mxCell>
        <mxCell id="ij-zDNfqEZCnku6-jbej-92" value="&lt;ol style=&quot;font-size: 12px&quot;&gt;&lt;li&gt;姓名&lt;/li&gt;&lt;li&gt;英文名&lt;/li&gt;&lt;li&gt;手提电话（*）&lt;/li&gt;&lt;li&gt;性别&lt;/li&gt;&lt;li&gt;住宅电话&lt;/li&gt;&lt;li&gt;……&lt;/li&gt;&lt;/ol&gt;" style="strokeWidth=2;html=1;shape=mxgraph.flowchart.multi-document;whiteSpace=wrap;fontSize=18;fillColor=#fff2cc;strokeColor=#d6b656;align=left;" vertex="1" parent="WIyWlLk6GJQsqaUBKTNV-1">
          <mxGeometry x="30" y="700" width="170" height="260" as="geometry" />
        </mxCell>
        <mxCell id="ij-zDNfqEZCnku6-jbej-93" value="&lt;font style=&quot;font-size: 24px&quot;&gt;报名方式&lt;/font&gt;" style="rounded=0;whiteSpace=wrap;html=1;fillColor=#007FFF;strokeColor=#006EAF;fontColor=#ffffff;" vertex="1" parent="WIyWlLk6GJQsqaUBKTNV-1">
          <mxGeometry x="1200" y="920" width="130" height="60" as="geometry" />
        </mxCell>
        <mxCell id="ij-zDNfqEZCnku6-jbej-94" value="&lt;font size=&quot;5&quot;&gt;活动报名&lt;/font&gt;" style="rounded=0;whiteSpace=wrap;html=1;fillColor=#007FFF;strokeColor=#006EAF;fontColor=#ffffff;" vertex="1" parent="WIyWlLk6GJQsqaUBKTNV-1">
          <mxGeometry x="2070" y="920" width="120" height="60" as="geometry" />
        </mxCell>
        <mxCell id="ij-zDNfqEZCnku6-jbej-97" value="" style="shape=flexArrow;endArrow=classic;startArrow=classic;html=1;fontSize=24;strokeColor=default;entryX=0.5;entryY=1;entryDx=0;entryDy=0;exitX=0.5;exitY=0;exitDx=0;exitDy=0;" edge="1" parent="WIyWlLk6GJQsqaUBKTNV-1" source="ij-zDNfqEZCnku6-jbej-93" target="ij-zDNfqEZCnku6-jbej-4">
          <mxGeometry width="100" height="100" relative="1" as="geometry">
            <mxPoint x="1270" y="760" as="sourcePoint" />
            <mxPoint x="1270" y="460" as="targetPoint" />
          </mxGeometry>
        </mxCell>
        <mxCell id="ij-zDNfqEZCnku6-jbej-98" value="" style="shape=flexArrow;endArrow=classic;html=1;fontSize=24;strokeColor=default;exitX=0.5;exitY=0;exitDx=0;exitDy=0;" edge="1" parent="WIyWlLk6GJQsqaUBKTNV-1" source="ij-zDNfqEZCnku6-jbej-94">
          <mxGeometry width="50" height="50" relative="1" as="geometry">
            <mxPoint x="2120" y="910" as="sourcePoint" />
            <mxPoint x="2130" y="640" as="targetPoint" />
          </mxGeometry>
        </mxCell>
        <mxCell id="ij-zDNfqEZCnku6-jbej-99" value="提交成功" style="ellipse;whiteSpace=wrap;html=1;sketch=0;fontSize=24;strokeWidth=3;fillColor=#dae8fc;strokeColor=#6c8ebf;" vertex="1" parent="WIyWlLk6GJQsqaUBKTNV-1">
          <mxGeometry x="2020" y="552" width="230" height="80" as="geometry" />
        </mxCell>
        <mxCell id="ij-zDNfqEZCnku6-jbej-100" value="审核成功" style="ellipse;whiteSpace=wrap;html=1;sketch=0;fontSize=24;strokeWidth=3;fillColor=#fff2cc;strokeColor=#d6b656;" vertex="1" parent="WIyWlLk6GJQsqaUBKTNV-1">
          <mxGeometry x="2380" y="380" width="230" height="80" as="geometry" />
        </mxCell>
        <mxCell id="ij-zDNfqEZCnku6-jbej-101" value="&lt;font size=&quot;5&quot;&gt;通知&lt;/font&gt;" style="rounded=0;whiteSpace=wrap;html=1;fillColor=#007FFF;strokeColor=#006EAF;fontColor=#ffffff;" vertex="1" parent="WIyWlLk6GJQsqaUBKTNV-1">
          <mxGeometry x="2440" y="700" width="120" height="60" as="geometry" />
        </mxCell>
        <mxCell id="ij-zDNfqEZCnku6-jbej-102" value="" style="shape=partialRectangle;whiteSpace=wrap;html=1;top=0;left=0;fillColor=none;sketch=0;fontSize=18;strokeWidth=3;direction=north;" vertex="1" parent="WIyWlLk6GJQsqaUBKTNV-1">
          <mxGeometry x="510" y="495" width="420" height="25" as="geometry" />
        </mxCell>
        <mxCell id="ij-zDNfqEZCnku6-jbej-109" style="edgeStyle=none;orthogonalLoop=1;jettySize=auto;html=1;exitX=0.75;exitY=1;exitDx=0;exitDy=0;fontSize=24;endArrow=halfCircle;endFill=0;strokeColor=default;" edge="1" parent="WIyWlLk6GJQsqaUBKTNV-1" source="ij-zDNfqEZCnku6-jbej-102" target="ij-zDNfqEZCnku6-jbej-102">
          <mxGeometry relative="1" as="geometry" />
        </mxCell>
        <mxCell id="ij-zDNfqEZCnku6-jbej-110" value="&lt;font size=&quot;4&quot;&gt;自定义栏位&lt;/font&gt;" style="rounded=1;whiteSpace=wrap;html=1;fontSize=12;fillColor=#fff2cc;strokeColor=#d6b656;" vertex="1" parent="WIyWlLk6GJQsqaUBKTNV-1">
          <mxGeometry x="820" y="530" width="190" height="30" as="geometry" />
        </mxCell>
      </root>
    </mxGraphModel>
  </diagram>
</mxfile>
